<svg width="1024" height="1024" viewBox="0 0 1024 1024" fill="none" xmlns="http://www.w3.org/2000/svg"><defs><linearGradient id="g" x1="150" y1="120" x2="850" y2="900" gradientUnits="userSpaceOnUse"><stop stop-color="#238C60"/><stop offset="1" stop-color="#145236"/></linearGradient><filter id="s" x="100" y="100" width="824" height="824" filterUnits="userSpaceOnUse"><feDropShadow dx="0" dy="16" stdDeviation="14" flood-color="#000" flood-opacity=".55"/></filter></defs><rect width="1024" height="1024" rx="170" fill="#111820"/><circle cx="512" cy="512" r="365" fill="url(#g)" filter="url(#s)"/><path d="M286 300h278c99 0 174 48 174 142 0 60-34 104-88 125l110 157H638l-94-137h-93v137H286V300Zm165 126v88h100c31 0 51-15 51-44 0-29-20-44-51-44H451Z" fill="#fff"/><path d="m650 300 82 0-67 94-73-46 58-48Z" fill="#FFB800"/><path d="m638 602 96 0-69 91-78-46 51-45Z" fill="#FFB800"/></svg>